<?xml version="1.0" encoding="UTF-8" standalone="no"?>
<!DOCTYPE svg PUBLIC "-//W3C//DTD SVG 1.1//EN" "http://www.w3.org/Graphics/SVG/1.1/DTD/svg11.dtd">
<svg width="100%" height="100%" viewBox="0 0 48 48" version="1.1" xmlns="http://www.w3.org/2000/svg" xmlns:xlink="http://www.w3.org/1999/xlink" xml:space="preserve" xmlns:serif="http://www.serif.com/" style="fill-rule:evenodd;clip-rule:evenodd;stroke-linejoin:round;stroke-miterlimit:2;">
    <path d="M26.2,46C23.4,46 20.775,45.467 18.325,44.4C15.875,43.333 13.742,41.892 11.925,40.075C10.108,38.258 8.667,36.125 7.6,33.675C6.533,31.225 6,28.6 6,25.8C6,20.933 7.55,16.642 10.65,12.925C13.75,9.208 17.7,6.9 22.5,6C21.9,9.267 22.083,12.475 23.05,15.625C24.017,18.775 25.683,21.533 28.05,23.9C30.417,26.267 33.175,27.942 36.325,28.925C39.475,29.908 42.7,30.1 46,29.5C45.133,34.3 42.833,38.25 39.1,41.35C35.367,44.45 31.067,46 26.2,46Z" style="fill:url(#_Linear1);fill-rule:nonzero;"/>
    <defs>
        <linearGradient id="_Linear1" x1="0" y1="0" x2="1" y2="0" gradientUnits="userSpaceOnUse" gradientTransform="matrix(40,0,0,40,6,26)"><stop offset="0" style="stop-color:rgb(105,234,203);stop-opacity:1"/><stop offset="0.5" style="stop-color:rgb(234,204,248);stop-opacity:1"/><stop offset="1" style="stop-color:rgb(102,84,241);stop-opacity:1"/></linearGradient>
    </defs>
</svg>
